
<svg width="428px" height="481px" viewBox="0 0 428 481" version="1.1" xmlns="http://www.w3.org/2000/svg" xmlns:xlink="http://www.w3.org/1999/xlink">
    <defs>
        <linearGradient x1="77.314267%" y1="5.71838656%" x2="22.6175945%" y2="90.6312034%" id="linearGradient-1">
            <stop stop-color="#FAD961" offset="0%"></stop>
            <stop stop-color="#F76B1C" offset="100%"></stop>
        </linearGradient>
        <circle id="path-2" cx="381" cy="355" r="126"></circle>
    </defs>
    <g id="Introduction" stroke="none" stroke-width="1" fill="none" fill-rule="evenodd">
        <g id="composition-3" transform="translate(-126.000000, -233.000000)">
            <g id="peeps" transform="translate(45.000000, 172.000000)">
                <g id="Group">
                    <g id="ball">
                        <use fill="#FFCF77" xlink:href="#path-2"></use>
                        <use stroke="#000000" stroke-width="4" fill-opacity="0.5" fill="url(#linearGradient-1)" xlink:href="#path-2"></use>
                    </g>
                    <g id="a-person/sitting" transform="translate(206.500000, 313.000000) scale(-1, 1) translate(-206.500000, -313.000000) ">
                        <g id="pose/sitting/one_leg_up-1" transform="translate(-20.293762, 159.504793)">
                            <path d="M205.653435,207.835628 C206.213492,213.689902 205.068363,219.280485 202.340615,224.006914 L201.453128,225.544615 L203.142305,226.136437 C206.216494,227.213667 209.635122,227.737344 213.593796,227.737344 C217.667784,227.737344 221.904361,227.168978 225.308481,226.711964 L227.487928,226.419633 L226.41734,224.522938 C225.556367,222.99857 225.397029,221.151255 225.228186,219.195551 C225.182661,218.670145 225.135886,218.126963 225.074352,217.589459 C221.84883,188.703995 217.771591,159.441514 213.828675,131.142688 C212.790855,123.696148 211.718016,115.995794 210.677194,108.421359 L207.691554,108.536662 C206.888363,122.556699 206.108935,136.813761 205.355271,150.601464 C205.023839,156.664369 204.692157,162.727522 204.357973,168.789686 C203.166569,184.116324 203.578045,196.526566 205.653435,207.835628 M206.871854,381.050882 C202.487195,381.050882 198.094032,380.593374 193.814932,379.691198 C180.424327,376.875043 168.258895,370.230685 157.907209,364.224073 C157.378669,363.923841 156.842374,363.623609 156.291822,363.314983 C152.239096,361.043245 147.195575,358.21672 144.034839,354.768498 C140.567435,350.985725 139.970607,347.216532 142.157058,342.906378 L142.502998,342.224436 L142.141549,341.550149 C139.877556,337.328386 140.045898,332.104944 142.550774,328.848318 L144.65593,326.111665 L141.194779,326.479548 C137.704862,326.85064 134.18743,327.353331 130.785562,327.83948 C127.011239,328.378959 123.107845,328.936708 119.263733,329.310023 L118.195396,329.413968 L117.949761,330.445275 C117.812936,331.01932 117.644094,331.367944 116.458192,331.367944 C115.429877,331.367944 114.047868,331.066231 112.585315,330.746988 C110.770068,330.350958 108.712438,329.901845 106.728348,329.901845 C105.855618,329.901845 105.070687,329.985051 104.32828,330.156894 L103.896292,330.256395 L103.588873,330.571935 C103.392265,330.773653 103.057582,330.898832 102.715644,330.898832 C102.457002,330.898832 102.21712,330.826737 102.056782,330.701064 L101.572016,330.321083 L100.956928,330.388734 C90.2402914,331.567688 80.9994657,333.636719 72.7074111,336.713355 L72.6698905,336.727428 L72.4900417,336.805202 C69.4916448,338.10168 66.3916921,339.442354 63.5683913,339.442354 C61.5045077,339.442354 59.8285872,338.738932 58.2937441,337.228638 L57.8600059,336.80224 L57.2481698,336.796314 C51.04026,336.739033 48.2037019,329.486311 47.8114865,324.62532 L47.7622094,324.013252 L47.2889495,323.615247 C36.4700069,314.518914 30.0829987,302.025961 27.762224,285.422103 C25.648563,270.298171 27.2714544,254.352305 29.1377295,240.748296 C33.4548508,205.493276 37.957574,173.88869 49.4033609,143.913898 L49.9381546,142.512734 L48.5131219,141.999673 C43.5696566,140.22001 39.7915814,138.096659 36.9627776,135.508147 L36.76692,135.328403 L36.5202846,135.226927 C32.4660577,133.558122 30.4804671,127.397937 29.9684358,125.549882 L29.9274133,125.400754 L29.855874,125.263477 C29.0286696,123.67368 28.8378148,121.462186 29.3325866,119.19588 L29.3856157,118.951695 L29.3548488,118.703559 C29.0877021,116.551815 29.9744391,114.302298 30.9132047,111.920443 C31.3421904,110.832349 31.7854338,109.707714 32.1093618,108.587524 C33.2229734,105.386203 34.3353344,102.128342 35.4114255,98.9771418 C37.8257516,91.9073733 40.3218727,84.5968761 42.9810833,77.4853813 L43.3447831,76.5128375 L42.543593,75.8425008 C41.1758417,74.6978669 41.6325926,73.3505271 43.604926,70.1289605 C44.0709319,69.368011 44.511674,68.6480471 44.8468581,67.9387 C47.3749967,63.5618827 50.084485,59.3603653 52.9015323,55.4494505 L52.9595642,55.3692076 L53.0058396,55.2822984 C67.4610294,28.2342735 93.1018632,13.3384781 125.204746,13.3384781 L125.859106,13.3397126 L126.220805,13.1216989 C132.237609,9.49669568 136.532719,3.27676102 139.351517,-5.893149 L139.441566,-6.18548 L139.406797,-6.48916846 C139.310244,-7.33431122 139.204436,-8.44240374 139.240706,-9.5176584 C139.332506,-12.2407316 140.397842,-14.670733 142.163311,-16.1847311 C145.512901,-19.0571795 150.597944,-19.2976613 155.519397,-19.2976613 L156.226036,-19.2964267 C162.518242,-19.278403 166.960432,-18.18389 170.206214,-15.8514145 C173.977286,-13.1414271 176.061431,-8.7668319 176.577964,-2.47776491 C176.732299,-0.595884071 176.727046,1.35364769 176.722294,3.23898514 L176.721043,3.76513156 L176.784328,3.97400997 C177.236576,5.46874974 177.766367,6.90497394 178.358692,8.24317836 L178.968027,9.61989937 L180.353788,8.99918979 C181.250031,8.59797537 182.386155,8.39156597 183.827946,8.36835726 C184.243675,8.35872812 184.649148,8.3542839 185.058122,8.3542839 C188.405711,8.3542839 191.986678,8.66044137 195.45008,8.95647589 C198.059513,9.17967456 200.757996,9.41052717 203.36993,9.51299116 L203.4057,9.51447256 C203.4057,9.51447256 203.766398,9.51225045 203.928237,9.51225045 C210.276474,9.51225045 214.878502,10.5124472 218.410692,12.6602406 C222.214031,14.9724702 224.948783,18.6836419 227.016669,24.3394073 C238.108261,56.7582737 242.668266,91.6777552 246.690475,122.485344 C248.971978,138.596141 249.665859,155.112348 250.336978,171.084633 C251.045617,187.94354 251.77802,205.376492 254.371694,222.417612 L254.576557,223.764704 L255.953813,223.675573 C262.014892,223.283741 268.56474,222.439586 275.499049,221.545803 C286.034836,220.188094 296.92932,218.783967 307.461105,218.783967 C322.186693,218.783967 333.351826,221.687031 341.5891,227.657595 C347.331755,233.079299 350.302636,240.419918 350.180569,248.891591 C350.007974,260.861361 343.688754,274.09477 334.081727,282.605207 L334.045457,282.638539 C321.902037,294.132283 299.735861,304.101165 268.162769,312.268409 C239.129322,319.77865 209.097827,323.860173 193.780163,325.624282 L189.989081,326.061297 L193.066271,328.290074 C194.311705,329.192498 195.448079,329.986779 196.540429,330.718841 L197.245066,331.190669 L198.01699,330.836119 C200.218199,329.824812 201.616217,329.612477 202.401899,329.612477 C203.099032,329.612477 203.939993,329.764074 203.986269,330.487001 C204.016536,330.960311 203.680351,331.662991 202.970711,331.751876 L199.202641,332.222963 L202.279331,334.421371 C204.33446,335.88994 207.400644,337.659727 210.951345,339.709501 C222.567475,346.41509 240.122117,356.548903 237.102959,365.447962 L236.90485,366.032624 L237.185504,366.583954 C237.9967,368.176961 238.065988,369.655899 237.39662,371.104962 C235.963333,374.210485 231.47962,376.567898 227.671779,377.526862 L227.606493,377.543404 L227.542708,377.565625 C220.917068,379.878349 213.962248,381.050882 206.871854,381.050882" id="âœ‹-Skin" fill="#FFDBB4"></path>
                            <path d="M176.961102,314.220769 C177.078667,314.038092 177.183724,313.781357 177.241006,313.554245 C178.044543,314.699946 190.899371,325.987228 203.611838,335.56748 C215.41931,344.465717 228.96205,351.188521 234.219671,358.606856 C236.217773,361.426113 237.23324,369.689182 236.848997,371.076946 C236.2764,371.804648 232.839428,373.801523 226.538083,377.067571 C224.402295,377.646365 207.260244,382.304109 199.645812,380.719016 C196.844523,380.292194 176.647027,373.815613 174.095626,372.657836 L152.391364,360.039214 C151.917124,359.830743 151.445423,359.623466 150.976579,359.417527 L150.342024,359.1643 C145.50166,357.222918 139.326528,353.110216 140.590867,347.181932 C142.078039,341.080911 139.409991,339.747549 140.020977,335.728302 C140.549748,332.249894 141.703569,328.708464 143.547749,325.331969 C150.671662,333.359632 159.714129,332.658548 164.269131,322.680685 L164.373586,322.477234 L164.476447,322.273251 C165.965683,319.296387 167.373804,315.514515 170.900273,314.344199 C172.846342,313.025963 175.335209,312.751948 176.961102,314.220769 Z M111.861777,291.830703 L112.30261,292.844955 C114.44572,297.756862 118.995238,307.963776 120.802756,311.990617 C120.400035,311.245098 119.939782,310.529202 119.421997,309.852556 C117.908802,307.876462 119.684072,313.84774 119.697943,320.080732 C119.710808,325.861493 117.928752,331.867369 117.518202,331.967148 C117.013174,332.090578 109.964745,328.619157 103.357106,329.67289 C98.0222667,330.523648 89.9336231,331.482467 81.8979199,333.680406 C75.3662649,335.466955 68.8695873,338.497352 63.9151916,339.527051 C59.8899473,340.363639 59.1031466,335.993819 56.4731732,336.264063 C54.1037616,336.507533 53.7223063,336.448944 53.1355881,335.95817 C49.8462814,333.233074 46.7370736,322.463638 47.0472439,318.417838 C49.7773413,296.97346 91.9183227,290.060711 111.861777,291.830703 Z" id="ðŸ‘Ÿ-Shoes" fill="#FFFFFF"></path>
                            <path d="M70.4344692,149.179341 L71.8041897,149.556311 L132.481561,166.567578 C132.869266,166.821756 133.158124,167.006214 133.435456,167.175027 L133.63277,167.293677 L134.781082,167.975831 L134.514096,169.286325 C133.913477,172.234444 133.824194,175.26685 134.096885,179.500967 L134.112406,179.73744 L134.14566,180.217972 L134.193939,180.872896 L134.211111,181.09623 L134.541232,185.132231 L134.603463,185.942026 C134.652006,186.596282 134.687671,187.143692 134.719313,187.715491 L134.726548,187.847937 L134.773804,188.774471 L134.791391,189.171908 C134.955491,193.208768 134.671332,197.151573 133.935129,202.854378 L133.898558,203.136271 L133.793739,203.92754 L133.721286,204.619763 L133.416909,207.449433 L133.311038,208.460743 C132.622564,215.130209 132.282066,220.365627 132.369784,225.245106 L132.374527,225.488788 C132.508695,231.891 133.48978,236.229278 135.120826,237.721665 L135.170451,237.766017 L135.213519,237.802564 L135.223419,237.803653 C135.384065,237.812277 135.646707,237.711109 136.156509,237.402347 L136.369993,237.269808 C136.501856,237.186445 136.751943,237.028143 136.868276,236.956248 L136.996196,236.878668 C137.233134,236.737271 137.439036,236.627775 137.654548,236.534716 C137.989292,236.390173 138.330058,236.296595 138.668079,236.26851 L138.769394,236.262064 L138.78423,236.261559 L138.877119,236.179718 C139.183442,235.904307 139.475187,235.599902 139.741865,235.276596 L139.854591,235.136908 L139.952066,235.010942 L140.608482,234.144903 L141.054205,233.371801 C141.396116,232.77838 141.705929,232.147373 141.98418,231.481027 L142.087045,231.229495 L142.177099,231.000305 L146.069508,220.902858 L145.802603,231.723909 C145.711991,235.397565 147.083657,237.302785 148.772685,237.322023 C150.54999,237.342268 152.369577,235.384923 152.895473,231.909678 L152.913092,231.789241 L156.63496,232.262037 C156.391268,234.440618 157.167863,237.883739 158.412556,239.824622 C158.952862,240.667135 159.461285,241.06371 159.824863,241.094463 C160.264784,241.131674 160.958519,240.720063 161.888674,239.520164 L161.887622,239.521173 L161.86866,239.545309 L161.908515,239.489537 C162.718016,238.329143 163.167775,236.770804 163.404064,234.55247 L163.420581,234.392891 L163.436032,234.234751 L164.739377,220.503539 L167.150668,234.083486 C167.38717,235.415423 167.653065,236.752503 167.948419,238.097201 L168.003981,238.347564 L168.044883,238.332271 C168.133587,238.297195 168.246795,238.244076 168.378923,238.169402 L168.436692,238.136069 L168.490584,238.103762 C169.295143,237.61287 170.245943,236.621515 170.624936,235.977488 L170.660903,235.914275 L171.092217,235.128024 L171.973621,234.969556 C172.127204,234.941944 172.291017,234.870685 172.408869,234.787138 L172.4508,234.755294 L173.084417,234.237945 L173.894028,234.350596 C185.703997,235.993857 194.402376,234.609077 199.937815,228.800344 L200.104588,228.622966 L200.967397,227.692868 L202.150697,228.147667 C207.412259,230.169936 278.067672,221.247115 283.963713,220.693494 L285.271434,220.572735 L286.364363,220.475258 C295.617556,219.663637 303.942727,219.785638 311.9419,219.873492 L312.455837,219.879781 L313.171552,219.922819 L313.830912,219.965183 C320.546771,220.411319 325.854591,221.236422 330.658177,222.813386 C336.68095,224.790597 341.43871,227.867644 344.804214,232.338228 L344.954423,232.539848 L345.117555,232.789485 C349.535841,239.623407 350.867314,247.868105 349.332456,256.498245 C347.942289,264.31482 344.230438,272.09786 339.035785,278.359294 L338.869496,278.558608 L338.569558,278.934929 C327.580331,292.515163 304.952751,303.4324 273.521265,312.115071 L272.566104,312.377499 L271.585912,312.643875 C248.295271,318.93853 222.126491,323.559821 196.506748,326.657525 L195.706314,326.753833 L194.122926,326.941561 L188.835428,327.562293 L192.20082,324.130117 L192.185542,324.124743 C191.952316,324.047932 190.031972,324.385201 186.424511,325.136547 L185.268748,324.172539 C184.604925,323.615734 184.106473,323.186839 183.63381,322.761188 L183.411296,322.559316 L182.521903,321.739221 L182.682901,320.736007 C182.683501,320.719165 182.67605,320.692287 182.642947,320.631694 L182.627138,320.603593 C180.018646,317.5465 178.613375,315.929258 178.411324,315.751865 L178.360748,315.707991 L178.287178,315.646199 L178.256648,315.622773 C177.785493,315.270375 175.092039,315.179068 170.176284,315.348851 C166.786223,309.580825 164.868081,306.39221 164.42186,305.783006 L164.261078,305.562787 L162.595636,305.550276 L163.226435,304.488184 C164.145118,302.941374 164.710163,301.206537 164.947351,299.294807 L164.970719,299.096411 L164.984371,298.967568 L164.879661,299.037448 C164.17316,299.517584 163.760831,299.995152 163.624016,300.446228 L163.608919,300.500229 L163.598247,300.545525 L163.58806,300.592812 L163.533713,300.790324 C162.76631,303.494178 161.136204,305.617431 158.746129,307.303736 C157.057201,308.495351 132.776873,316.977083 126.767661,318.511079 L126.348704,318.617508 L124.850989,318.996119 L123.777418,316.709865 C122.125291,313.170854 119.985146,308.444061 117.3561,302.52769 L116.061452,299.607416 L114.732519,296.597294 L108.404043,292.875728 L104.057454,292.948359 C103.137733,292.964651 102.29267,292.980369 101.522302,292.995513 L101.143343,293.003037 L98.7477393,293.054914 L98.3160633,293.100557 C88.2922298,294.176097 78.5265884,296.355381 69.272715,299.610473 L68.8026213,299.776913 L68.3126552,299.9527 L68.0512846,300.037903 L67.5861566,300.191436 C61.0481219,302.367342 56.6820785,304.584729 53.5487414,307.532263 C49.9101088,310.955128 47.9720146,315.429379 47.7132838,321.64249 L47.7055966,321.841372 L47.5529126,326.120721 L44.5123369,323.111382 C35.4583099,314.15037 29.5305336,301.988306 27.0028591,288.134298 C24.6810437,275.408589 25.3537767,261.760134 28.79589,249.460658 L28.847345,249.277768 L28.8563954,249.153879 C29.1139987,245.715327 29.7359111,242.199421 30.7159074,238.354198 L30.8088309,237.992736 L30.9038515,237.629298 C31.6073898,234.960392 32.306397,232.669543 33.5626551,228.857095 L33.701939,228.435064 L35.3688178,223.425366 C44.0057804,198.512194 55.399535,174.260326 69.2794567,151.099483 L69.7008211,150.397974 L70.4344692,149.179341 Z" id="ðŸ‘–-Pants" fill="#8FA7DF"></path>
                            <path d="M194.125202,323.88163 C194.582954,323.414816 194.77556,322.802849 194.347825,322.084484 C192.694417,319.968641 189.264783,321.415492 187.131361,321.904029 C186.325668,321.232815 185.525479,320.558885 184.755056,319.847926 C185.022703,318.184085 183.026606,317.077902 182.206156,315.794227 C181.400713,314.848997 180.642797,313.775153 179.677017,312.98273 C177.323474,311.143371 174.061682,312.387549 171.330182,312.303863 C169.226526,309.622709 167.060337,307.025981 165.059237,304.256204 C167.365504,300.373085 167.528093,295.823443 166.762673,291.495974 C202.139605,278.047003 232.761424,252.583322 271.02244,246.698163 C272.338163,246.478456 273.076068,244.876331 272.748138,243.701274 C270.079172,237.319924 231.725605,253.785533 225.992456,256.767611 C209.083419,264.879453 193.244469,274.990868 176.810692,283.912414 C173.38381,285.736467 169.614239,286.716751 165.867181,287.664696 C160.109018,268.73048 150.368418,251.373704 142.899566,233.118355 C143.384582,232.27656 143.797559,231.392799 144.147751,230.484352 C143.900115,240.524176 153.645468,240.383466 154.991207,230.85958 C154.435902,235.823949 158.18296,246.456239 163.590931,239.479956 C164.859127,237.727245 165.309375,235.483281 165.524243,233.219568 C165.802145,234.784665 166.117319,236.342356 166.467511,237.89511 C167.855523,240.970994 171.645355,237.231055 172.525588,235.62646 C173.033617,235.535122 173.508879,235.303072 173.856569,235.019183 C183.419322,236.349762 194.682759,236.273235 201.699363,228.709423 C213.6009,233.283752 226.773135,229.185617 238.809746,227.359095 C263.3032,224.537477 287.894207,220.236917 312.607782,220.565488 C323.641342,221.207326 336.658242,222.992129 343.637325,232.424677 C352.589743,246.021764 347.529463,264.385732 337.654039,276.15605 C313.898491,306.290089 232.356202,319.393456 194.125202,323.88163 M194.793069,334.736095 C195.225557,334.620071 195.661046,334.513674 196.093784,334.412708 C203.027592,340.196654 235.683029,355.215659 233.199165,364.186577 C232.321182,365.302388 230.220028,365.556407 228.891549,365.916824 C226.577778,366.54385 224.241495,367.08719 221.882949,367.516728 C214.258511,368.906554 206.361924,369.148477 198.747491,367.563385 C195.946203,367.136563 193.417314,365.939288 190.865912,364.781511 C182.621384,361.147722 173.541396,357.13352 165.33664,353.529601 C154.913415,349.389747 136.630872,341.230753 144.150253,327.463579 C151.274166,335.491242 160.316632,334.790158 164.871634,324.812295 C166.442497,321.783314 167.81325,317.700238 171.502777,316.475809 C173.448846,315.157573 175.937713,314.883557 177.563606,316.352379 C177.68117,316.169702 177.786228,315.912967 177.843509,315.685855 C179.677017,318.30011 181.258135,321.052606 183.406565,323.442218 C182.66891,323.481716 174.989692,329.176545 177.255937,329.179261 C179.982434,327.772155 182.691422,326.599566 185.635539,325.841457 C187.769211,327.991614 190.1155,329.991433 192.546836,331.840172 C190.185539,333.402801 188.064373,335.315971 186.358436,337.39207 C186.210855,337.574993 186.390954,337.81198 186.611075,337.712988 C189.26003,336.530526 191.984026,335.491242 194.793069,334.736095 M229.942376,373.527539 C203.420058,385.463501 175.342135,372.172521 152.724712,358.002717 C147.504595,355.082354 140.638324,350.9425 141.693903,344.06743 C145.538515,349.70326 151.876997,352.912449 157.960338,355.694569 C168.180952,360.323207 178.468853,364.803729 188.714731,369.375589 C189.682512,372.591937 194.310054,372.715368 197.10684,373.429042 C209.556178,375.848277 222.938529,374.646065 234.654964,369.822407 C233.976842,371.834322 231.758373,372.757334 229.942376,373.527539 M124.124003,327.051322 C123.468893,327.135254 122.813283,327.211534 122.158173,327.285839 C122.22571,326.41689 121.702923,325.54794 120.862461,325.278862 C121.240169,323.437034 121.380246,321.533738 121.177634,319.665249 C122.273236,322.501679 125.810179,321.640135 128.056413,320.822779 C131.265676,319.948892 134.454927,319.0086 137.626669,318.006098 C138.877356,320.334242 140.203085,322.627578 141.831479,324.735768 C135.902973,325.26405 130.029997,326.313208 124.124003,327.051322 M121.51532,318.129529 C121.357733,318.463038 121.13261,318.815802 121.127607,319.215963 C120.967519,317.836011 120.654847,316.473094 120.179586,315.1672 C120.624581,316.154643 121.070075,317.142086 121.51532,318.129529 M117.773265,310.731114 C114.856663,306.9223 109.466202,303.809139 104.483465,304.87064 C104.163289,304.940008 104.155535,305.4557 104.483465,305.520131 C111.177141,306.431047 117.05537,311.750648 117.287748,318.628434 C117.815788,321.741348 115.654601,324.797483 116.382501,327.784498 C116.237421,327.794372 116.092341,327.801778 115.949763,327.811652 C115.897234,328.011363 115.849458,328.189103 115.786923,328.344872 C116.510071,328.465586 116.722687,329.631016 115.869469,329.838379 C115.364441,329.961809 114.836652,330.025993 114.298856,330.053148 C111.569857,329.315034 108.690776,329.144453 106.081843,328.053329 C103.500425,326.910611 104.145779,323.698953 103.235279,321.474738 C102.567412,318.909609 101.79924,316.354847 100.831459,313.893646 C100.76142,313.695911 100.493773,313.740592 100.471261,313.940303 C99.7883859,318.850609 99.8108983,323.844601 99.975989,328.793911 C99.0804971,328.885497 98.190008,328.986709 97.2967674,329.097797 C97.3545491,327.71513 93.2147752,310.872071 91.0335772,315.194602 C92.1316803,319.94667 92.2642531,324.911039 92.3818177,329.801103 C85.9057606,330.870257 79.5247557,332.462508 73.3163456,334.629945 C68.9414426,335.958056 63.7383347,339.888078 59.4912519,336.335506 C56.2019451,333.61041 55.0938365,328.855626 55.4040069,324.809826 C59.6813563,300.871744 93.4649126,298.074812 113.408367,299.844803 C115.291902,304.199426 117.210455,308.539237 119.154023,312.869174 C118.751302,312.123655 118.291049,311.407759 117.773265,310.731114 M49.7534031,324.34326 C49.3882025,318.907387 50.301204,312.140688 54.3209119,308.089704 C63.5209653,300.296558 76.403041,297.844985 87.8993556,295.023614 C93.2545471,293.964581 98.6827787,293.261028 104.133272,292.910486 C106.066835,292.757433 108.523184,293.196598 109.888684,291.611999 C110.59182,293.280777 111.304461,294.947087 112.017603,296.613397 C89.1300316,293.609102 41.3788032,304.046126 54.7511483,335.45915 C51.9193428,332.385734 50.0433124,328.643573 49.7534031,324.34326 M163.463361,306.374269 C164.516439,309.010741 165.804647,311.521315 167.488071,313.816872 C165.57452,315.071172 164.013663,316.924849 162.913059,318.917261 C155.859184,337.407128 148.31504,327.503077 138.942392,317.581498 C146.874249,314.582387 157.380019,312.335708 163.463361,306.374269 M46.0513697,320.581102 C27.7087947,302.426966 24.1493395,272.184062 30.9255615,248.411376 C31.5283927,239.59598 34.6050826,231.19531 37.3615967,222.84895 C46.1389178,197.530916 57.6827585,173.173171 71.5278632,150.175627 C88.704798,154.90301 105.851716,159.756044 123.068673,164.328152 C125.439725,164.84409 127.813529,165.863625 130.247616,166.011742 C131.118094,166.567178 131.991074,167.179393 132.896571,167.717302 C131.578347,174.187768 132.794015,180.79376 133.101684,187.303477 C133.381588,192.428305 132.829034,197.446984 132.150912,202.517502 C131.393246,209.8937 128.273782,233.885845 134.524966,238.277744 C136.643629,239.302216 138.53717,236.268298 139.450171,237.102687 C140.273123,236.527502 141.041045,235.779514 141.666388,234.954999 C144.080214,242.775546 148.024881,250.030782 150.461219,257.858735 C153.70275,269.362197 164.348847,287.983147 161.985049,298.955858 C160.156544,305.732184 152.157151,307.1936 146.38398,309.408187 C139.712815,311.733615 132.96661,313.868713 126.110344,315.601922 C122.763506,308.484928 119.564248,301.301035 116.425024,294.090234 C102.077143,260.821063 89.3701635,226.857968 78.0139258,192.490021 C77.8013091,191.727221 75.1898747,183.462325 74.7121123,185.768004 C74.6720903,185.531017 74.3744268,184.918803 74.2618649,185.442148 C76.1879229,193.512024 78.1412458,201.579432 80.2551569,209.604873 C75.0623046,208.876634 69.479238,208.592744 64.7266275,211.142815 C64.4814929,211.273652 64.6615918,211.596792 64.9039749,211.557541 C70.5320663,210.579973 75.9602978,212.426491 81.3657669,213.752133 C88.9574368,239.642884 98.7528171,264.876738 109.121012,289.795104 C105.914251,288.770632 102.192206,289.903723 98.845368,289.98494 C88.3045782,291.076311 77.8838544,293.386927 67.9258848,296.980972 C55.4090096,301.047015 46.5591486,306.349336 46.0513697,320.581102 M35.953073,131.646263 C32.8716305,128.321049 30.4500504,124.075045 30.9180574,119.569837 C32.7690741,117.096293 33.3819107,113.869824 34.4600029,111.01093 C38.674818,99.0480603 42.5869668,86.9938521 47.1744866,75.1595968 C56.9323463,78.1663602 66.5323693,81.7729951 75.5875931,86.5100051 C77.2535082,87.3619214 78.9019136,88.2456827 80.530308,89.161536 C82.236245,90.1193555 84.0972673,91.7831966 86.1433911,91.3067555 C83.9071628,94.4789155 79.3021334,97.7794431 78.5242061,101.445078 C78.3566141,102.60557 79.1770647,103.681883 80.4377572,103.422679 C100.171096,117.466584 120.54979,131.214257 139.202535,146.857573 C153.170207,157.936928 163.893597,166.922658 168.683728,184.899054 C171.913002,196.543473 171.922757,208.713706 171.447746,220.68645 C171.355196,223.0141 171.352694,225.396552 171.165091,227.73926 C171.445245,229.491971 170.912452,233.059109 168.946372,233.123292 C168.991397,233.547893 169.131474,233.940401 169.354096,234.286006 C169.291562,234.369692 169.226526,234.448934 169.158989,234.530398 C169.061436,234.051489 168.966383,233.575048 168.876334,233.096138 C167.345493,226.302531 167.14038,218.420269 167.395521,211.18725 C167.50283,209.11362 164.328836,209.162993 164.151239,211.18725 C163.673476,216.655215 163.195714,222.123179 162.717951,227.588675 C162.144887,231.131127 163.048133,235.764702 160.22158,238.457952 C157.347502,235.796794 158.298024,230.548535 158.438101,227.114703 C158.662974,221.513434 158.905857,215.914633 159.113472,210.313363 C159.178507,208.538435 156.244396,208.081743 155.911463,209.886294 C154.968695,215.030871 153.948134,220.160637 152.849781,225.275591 C152.187167,227.252945 151.731917,236.125119 148.420098,234.584708 C146.446514,233.23438 147.869796,225.317557 147.609653,222.695896 C147.73222,217.506884 147.80451,212.325278 148.184969,207.148609 C148.340054,205.060168 144.94569,204.615818 144.480434,206.654888 C143.725019,209.955415 143.002122,213.255943 142.346762,216.578688 C140.908472,222.179957 141.431259,229.773393 136.238407,233.496052 C134.20479,218.946082 137.131147,204.497325 137.541623,189.999196 C137.296488,185.301437 136.491046,180.650581 135.780655,176.0096 C134.995224,170.877366 134.537473,165.290908 136.375982,160.341351 C135.873206,158.124542 133.897121,164.120789 133.712019,164.619447 C132.223702,161.681805 128.599211,161.454693 125.732636,160.53884 C119.361637,158.472616 112.835552,156.914925 106.389512,155.078281 C89.2948721,150.321275 72.1804717,145.638328 55.0613186,140.965255 C48.2225623,139.069364 41.0236081,136.825401 35.953073,131.646263 M207.134848,209.039562 C204.776053,196.229713 204.841088,183.250024 205.849142,170.299712 C206.957251,150.215125 208.032842,130.125601 209.183474,110.043483 C214.178717,146.391253 219.504142,182.697057 223.576129,219.160851 C223.866288,221.698579 223.821514,224.384424 225.099716,226.648136 C218.035836,227.596081 210.50645,228.551432 203.637928,226.14454 C206.652083,220.923436 207.715167,214.979031 207.134848,209.039562 M242.826953,118.814444 C248.167386,153.263855 245.120713,188.318075 250.301058,222.727988 C243.114611,223.535223 235.983194,224.730029 228.871538,226.043327 C229.649715,221.792386 228.173904,217.403203 227.918764,213.122638 C224.056393,182.59066 219.7918,152.078923 214.141197,121.813801 C212.755185,114.570908 211.354666,107.357638 209.748784,100.154243 C209.991417,95.7922145 210.204034,91.4301858 210.344111,87.0654417 C218.185918,82.1260059 227.028275,78.9289129 236.173298,77.3171594 C238.644406,91.1117355 241.113512,104.896437 242.826953,118.814444 M181.005496,10.5610879 C180.692824,10.0254002 180.395161,9.47736946 180.110004,8.92193288 C181.075535,8.95896198 182.016051,8.99352248 182.966573,9.15151333 C182.92405,10.6845183 183.009097,12.2298663 183.026606,13.7752143 C182.551095,12.6445923 181.620834,11.6127145 181.005496,10.5610879 M342.29909,226.443242 C319.489061,209.824579 282.023232,220.412435 255.598968,222.120711 C250.561201,189.023849 252.617331,155.386857 247.922002,122.235933 C243.597376,89.117101 239.037371,55.5366395 228.176406,23.8051647 C223.693944,11.5359409 215.939685,7.89252374 203.172672,7.99126802 C196.694114,7.7370015 189.84285,6.69771794 183.546892,6.8455875 C182.166134,6.86805182 180.722841,7.05072874 179.477157,7.60863393 C177.726195,3.65392546 176.775673,-0.592078638 176.295409,-4.87017463 C176.265393,-5.1417214 175.920203,-5.19109354 175.817647,-4.93188981 C174.336833,-1.20676179 174.179247,2.859034 174.984439,6.75943311 C175.567509,9.55389628 179.036915,20.5515406 183.066628,16.2487586 C183.386554,25.2715173 181.407967,36.046987 172.585872,40.7299345 C157.169904,47.4642945 135.860449,41.3322746 126.930794,27.0390399 C125.204846,24.1828616 123.716529,21.1437594 121.805479,18.4013839 C135.120293,14.6244151 142.594148,-1.35981543 139.457675,-13.5325167 C137.51911,-4.06540874 133.984419,6.51257241 125.182334,11.8151403 C93.1294784,11.7435507 66.4800906,26.3700474 51.4218196,54.541544 C48.4752011,58.6322727 45.7512048,62.8829672 43.2548337,67.2082136 C41.9113457,70.101421 37.9769347,74.1252505 41.3162689,76.9197137 C37.4591503,87.2335539 34.0372707,97.6903264 30.420284,108.085877 C29.4269884,111.549333 27.1557409,115.183123 27.6087397,118.824318 C27.1184704,121.068282 27.1409828,123.722034 28.2640997,125.879597 C29.329685,129.725687 31.7207483,134.899887 35.6856761,136.531636 C39.0500241,139.609989 43.3048611,141.730523 47.7422985,143.327712 C35.9080483,174.313667 31.403324,207.7312 27.3936215,240.469867 C23.463713,269.110646 21.4353488,303.950097 46.0588738,324.64912 C46.5366363,330.571555 50.0433124,338.118087 56.9773711,338.182271 C61.7797589,342.906938 67.633224,340.3149 72.9786601,338.004531 C82.0011159,334.656853 91.4638135,332.800707 100.866478,331.766114 C101.874532,332.556315 103.515433,332.425232 104.413426,331.504689 C110.109055,330.188921 118.003391,335.516175 119.154023,330.690048 C126.498057,329.976374 133.762047,328.638636 141.098576,327.858309 C138.006628,331.877448 138.229501,337.804327 140.55828,342.146607 C134.627522,353.835708 148.44261,360.604628 156.88975,365.400885 C168.293264,372.016752 180.202555,378.294666 193.244469,381.037042 C204.710767,383.453808 216.722615,382.720879 227.785941,378.859977 C233.599385,377.395847 241.718844,372.589716 238.2692,365.818326 C242.641851,352.932198 211.934985,339.579502 202.902524,333.126317 C206.594552,332.664934 206.729626,324.987319 197.126851,329.398967 C195.966214,328.621109 194.825587,327.818811 193.697468,327.001949 C232.538552,322.528833 306.717046,310.222827 334.827486,283.621118 C350.270719,269.942566 359.180863,242.274419 342.29909,226.443242" id="ðŸ–-Ink" fill="#000000"></path>
                        </g>
                        <g id="Head" stroke-width="1" transform="translate(86.436394, 45.071998)">
                            <g id="head/Short-4">
                                <path d="M102.099465,76.2145468 C101.557501,71.4724913 102.258894,61.5606691 102.305891,60.9584906 C102.603002,57.1515739 100.811688,42.1186287 97.4253786,43.5037652 C91.7449342,39.0259511 84.1790833,38.0371767 77.1044276,37.5648515 C62.4092866,36.5835982 46.7763387,38.8361686 35.4291086,48.6837996 C29.8174728,53.797899 24.354278,61.2360193 24.7934159,68.9807499 C19.6948807,76.3218479 12.5070904,86.3918529 18.8596425,94.9741836 C21.0189948,97.7161271 24.4509192,98.7372422 27.163575,100.813819 C32.6198116,105.196115 36.0429739,111.485261 41.5510103,115.841484 C56.1435827,128.898871 80.9218862,131.626525 95.2590681,116.774853 C106.345753,106.018673 104.553094,89.927022 102.603002,76.2145468 C101.291942,66.99555 103.156781,85.4658058 102.099465,76.2145468 Z" id="âœ‹-Skin" fill="#FFDBB4"></path>
                                <path d="M57.4737323,17.4552519 C61.4038399,16.665536 65.4394385,16.1741573 69.4528815,16.3220723 L69.7623173,16.3340398 C72.7820628,16.4542178 76.6063319,16.720064 79.240637,18.4685952 C79.3922017,18.3171703 79.6359137,18.2394522 79.8569665,18.344497 C82.9874571,19.8324219 86.4306442,20.9081903 89.7267985,21.9771898 C93.0078467,23.0409245 96.4117579,23.7431448 99.850665,24.026189 C101.144504,24.1327379 102.251782,25.5238913 101.432527,26.7716423 C101.237658,27.0689766 101.047825,27.3693193 100.858746,27.6704141 C101.174968,27.637572 101.491189,27.603727 101.80741,27.5718877 C102.84797,27.467595 103.887522,28.5734479 103.825839,29.5822785 C103.787319,30.2168089 103.718586,30.8438182 103.616871,31.4633064 C104.013155,31.4550332 104.407173,31.5141992 104.787847,31.6743987 C106.715387,32.4849229 106.581195,34.7710876 106.436931,36.510468 C106.237027,38.9242407 105.330408,41.4809144 103.647083,43.2874833 C104.903912,44.5873806 105.793662,46.1397363 106.324391,47.9834094 C106.709345,49.3296869 106.9236,50.7637105 106.817857,52.1651427 L106.784147,52.5847245 C106.653378,54.1055522 106.393386,55.789301 105.294657,56.8833814 C104.730695,57.4474642 104.035814,57.653041 103.373411,57.5878581 C103.773975,61.0926921 104.030779,64.6175825 104.272477,68.1299376 L104.385814,69.8086864 C104.924969,77.9264314 105.330148,86.0970442 105.224162,94.2281654 C105.12572,101.826987 103.617878,109.202682 98.9375004,115.372493 C94.6748065,120.990757 88.554564,125.132378 81.6309279,126.706796 C77.8997175,127.55668 74.0904588,127.616849 70.3139301,127.07533 C68.4833207,126.812091 66.6406264,126.408459 64.9031714,125.771672 C62.9799112,125.064688 61.5977017,124.024269 60.3036112,122.464894 C59.6915618,121.725318 59.986131,120.150901 61.2049427,120.298816 C63.0482321,120.521372 64.7309409,120.789614 66.4981005,121.332492 L66.7511529,121.411939 C68.511267,121.973515 70.3340716,122.39219 72.1742481,122.570189 C75.9434756,122.933709 79.7701063,122.567682 83.3807196,121.429488 C89.259516,119.574283 94.3225822,115.440183 97.5678793,110.245608 C101.419939,104.088332 101.855498,97.0987198 101.799857,90.0188547 C101.740228,82.249951 101.486495,74.4765472 101.072269,66.7156965 L101.001751,65.4223405 C100.782712,61.4286347 100.571227,57.432422 100.38517,53.4362092 C100.327263,52.182692 100.239144,50.9191467 100.080278,49.6681365 C98.627825,48.8207589 97.3261814,47.6524809 96.4777213,46.2109361 C94.773248,46.9129057 92.9806557,47.4193267 91.3313197,47.8229592 C87.5109832,48.7585844 83.5446209,48.9857217 79.6560551,48.3998278 C78.6071872,48.8312884 77.5374225,49.2106027 76.4512928,49.5370186 C76.1577307,49.6666323 75.8641685,49.7939896 75.5708581,49.9188399 C72.9522131,51.0344702 70.2960545,51.9796222 67.5318872,52.6715637 L66.8528249,52.8401867 C65.3981433,53.1972691 63.8180717,53.5489118 62.2699238,53.6593352 C62.0156376,53.7571096 61.7412098,53.8398417 61.4413534,53.9125457 C60.0317011,54.2535024 58.5686739,54.3613048 57.123774,54.2409672 C55.7161358,54.1231366 54.6989907,52.7066622 55.474438,51.380441 C56.0409173,50.4127257 56.6126838,49.4475175 57.1892338,48.4848163 C55.1826382,49.3171517 53.1105827,50.0090932 51.0209035,50.5957392 C48.9110828,51.1873993 46.7710498,51.6862992 44.6282474,52.1450865 C43.4827003,52.3882688 42.3323697,52.6038738 41.1893403,52.8470561 C40.3710924,53.0200415 39.1147672,53.1102947 38.4473287,53.6468001 C37.7098985,54.2359531 37.5009306,55.609808 37.2212157,56.4571856 C36.8536335,57.5577737 36.5087106,58.6633758 36.1939998,59.7815132 C35.5673478,62.0127737 35.0537399,64.2766258 34.6559456,66.5630411 C34.2581512,68.8519635 33.9910247,71.1634492 33.8424813,73.482456 C33.6941896,75.7989558 33.7593976,78.1304977 33.5204692,80.4369693 C33.3918155,81.6604021 32.0727999,82.2896677 31.0984555,81.434769 C30.9841525,81.3344876 30.8689544,81.233092 30.7548753,81.1305822 L30.5848476,80.9759817 C29.7512418,80.2238714 28.9430646,79.4266345 28.2761296,78.5291162 C28.1552807,78.3636519 28.0394672,78.1906665 27.9312067,78.0151741 C27.9135829,78.0151741 27.8984768,78.0101601 27.880853,77.9976249 L27.6959268,77.8590584 C25.6597105,76.3498698 22.2578786,74.3823058 20.2724064,76.8895157 C19.6397212,77.6882383 19.3157928,78.7052689 19.0469439,79.6864538 L18.5752016,81.4424877 C18.2700684,82.5888405 17.9829068,83.7415749 17.8148932,84.9145327 C17.4347227,87.5419047 17.6260668,90.5704023 19.44157,92.6763111 C20.1666636,93.5186747 21.1661848,94.1203629 22.2812679,94.2783061 C22.9033881,94.3635453 23.5177034,94.2582498 24.1345364,94.1805318 C24.7614402,94.1028137 25.365433,94.2281654 25.9925886,94.1679966 C26.9895922,94.0702222 27.4251518,95.2585565 27.0525343,96.0056528 C26.8511195,96.4067783 26.6142052,96.752749 26.3450646,97.046072 C26.5613338,97.2315926 26.7680358,97.4321553 26.966933,97.6427462 C27.5560715,97.8307738 28.0845338,98.2344063 28.4800622,98.7684047 C28.7998083,99.1996146 28.9657238,99.66843 28.9936701,100.162316 C29.0286659,100.28516 29.0588782,100.410512 29.0868245,100.538371 L29.6269648,101.4113 C29.7457633,101.602757 29.8641348,101.791888 29.9828689,101.977409 C31.3575253,104.133458 32.8834947,105.958579 34.7793122,107.678405 C36.6046344,109.333047 38.5858014,110.814705 40.3005972,112.589685 L40.5025986,112.800431 C42.1012442,114.477873 43.7863332,116.508451 43.1606883,118.947524 C42.9995564,119.574283 42.1206323,120.025549 41.5468517,119.60186 C39.701388,118.238034 38.7721101,116.07697 37.2063613,114.422327 C35.5947906,112.717544 33.8097513,111.185746 32.1936488,109.485977 C30.6651617,107.881475 29.4591902,106.063875 28.5505574,104.063261 C28.1877589,104.46188 27.6592966,104.745175 26.92665,104.855484 C25.6678071,105.043512 24.4943137,104.308951 23.94571,103.223405 C23.5929822,103.378841 23.2332049,103.519235 22.8704064,103.629544 C20.9620005,104.211176 19.7613161,102.097746 20.4813743,100.535864 C20.8663285,99.6985144 21.3472065,98.9714744 21.9441498,98.3597581 C20.0782928,98.1040405 18.1799577,97.1438464 16.9538447,95.945484 C13.8774843,92.9345357 13.4545131,88.4093386 14.1468767,84.3855485 C14.5144589,82.2520622 15.1486639,80.0935056 15.972199,78.0903852 C16.1154553,77.7419074 16.2692859,77.3909226 16.4377191,77.0449518 C16.3445647,77.0424448 16.2488926,77.0023322 16.1884682,76.9246142 C15.6320596,76.1674898 14.9550539,75.5482523 14.5419016,74.7008747 C14.1617311,73.923694 13.7390116,73.1364852 13.4391552,72.3267131 C12.822574,70.6695634 12.5204517,68.7993158 12.3190368,67.0468988 C11.9036186,63.4593326 12.0644988,59.8943297 12.6161237,56.3293268 C13.5549688,50.2572896 15.8229002,44.4464853 19.1641211,39.3476788 C18.9822003,39.2524831 18.8078634,39.1375791 18.6453912,39.0017037 L18.5651636,38.9320125 L18.4347475,38.8146833 C17.4812998,37.9555226 17.5636282,36.3452545 18.4347475,35.4750628 L18.7098741,35.2004443 C19.0582574,34.8558053 19.3586878,34.5827591 19.921441,34.2075062 C20.0045246,34.1521008 20.0893706,34.0999545 20.1752237,34.051318 C19.8806545,33.5092972 19.7784364,32.8755189 19.9836278,32.176307 C20.6986506,29.7404724 24.2183754,29.8267144 26.4492968,30.8889448 C28.9173842,28.6955405 31.6541087,26.7914479 34.6204462,25.2496217 C41.6853244,21.5793234 49.6736898,19.0196413 57.4737323,17.4552519 Z M20.9547748,81.6102614 C22.2740421,81.1815585 24.0263515,82.0815839 25.2121815,82.6231033 C26.71524,83.3100307 27.9942244,84.3253796 29.2329258,85.3983904 C29.8497588,85.9348957 29.9602852,86.8123577 29.8069582,87.561961 C29.7916003,87.637172 29.7767459,87.7148901 29.7588704,87.7926082 C29.5952208,88.5923521 28.6989246,89.2216178 27.9058536,89.1990545 C26.2466986,89.1539278 25.456397,87.7274253 24.5170485,86.5190347 C24.406522,86.7145834 24.2680493,86.8950899 24.0965949,87.0304697 L23.9808192,87.1207098 C23.5910602,87.4162422 23.1613891,87.6524422 22.6464079,87.6296509 C22.2813434,87.6121017 21.9316369,87.5193414 21.6091213,87.3513701 C20.8034618,86.9276813 20.4487199,85.8897691 20.6675068,85.0448985 C20.8034618,84.5134072 21.1156549,84.0972395 21.52352,83.8089306 L21.3714837,83.7053832 C21.0461822,83.4799484 20.7494891,83.2423077 20.5182709,82.8916075 L20.4660919,82.8086239 L20.4862334,82.8086239 C20.2344648,82.3774139 20.3983662,81.7907679 20.9547748,81.6102614 Z" id="ðŸ–-Ink" fill="#000000"></path>
                            </g>
                            <g id="face/Calm" transform="translate(39.835903, 46.574398)" fill="#000000">
                                <path d="M42.6032618,59.8411835 C40.7683753,60.3728274 38.7988422,60.4203627 36.9284869,59.8713121 C35.232044,59.3732645 33.4901772,58.2772554 32.2416329,56.8269705 C31.1324942,55.5386166 30.4141672,53.9729478 30.4423809,52.3017089 C30.4455903,52.1108396 30.5138131,51.9515219 30.6187609,51.82786 C30.7317414,51.6947328 30.8895416,51.6033178 31.0585866,51.56364 C31.2324375,51.5228343 31.416225,51.5373009 31.5727226,51.6084144 C31.7143954,51.6727913 31.8357748,51.7821373 31.9116733,51.9419545 C32.1035523,52.1941083 32.294686,52.4425277 32.4865699,52.6840571 C34.0293691,54.5898098 35.5234497,56.0140199 37.8433655,56.5248442 C39.1020833,56.8020582 40.3592179,56.6791316 41.5126838,56.2561832 C42.7474134,55.8034373 43.8635709,55.0074029 44.7382211,53.9887372 C45.1334909,53.5283733 45.6001519,53.340469 46.0564662,53.3373108 C46.5735698,53.3337317 47.084681,53.5741026 47.4697308,53.9582877 C47.8482195,54.3359265 48.101648,54.8491013 48.1246171,55.3859208 C48.1447763,55.8570671 47.9911355,56.349213 47.5823934,56.7882836 C46.236056,58.2346078 44.4911926,59.2941704 42.6032618,59.8411835 Z M42.5466095,35.9724435 C44.427515,37.1161604 47.2934372,39.7830852 45.2700159,42.6184987 C42.8882554,45.1185765 39.4590581,42.2520666 37.7692091,40.9556557 C36.2023019,39.9509301 34.4417939,42.5350092 35.8955713,43.7081959 C48.1064557,52.7520005 53.0618912,36.2715095 43.4979452,34.6277128 C42.4449204,34.4465735 42.0538243,35.6186222 42.5466095,35.9724435 Z M24.9516857,30.9398728 C24.3471502,30.5531158 23.6360217,30.4203612 22.8478847,30.7790588 C22.2319871,31.0592393 21.1517722,31.9932791 20.4000143,33.2211313 C19.8857112,34.0611466 19.5210118,35.0465945 19.5969372,36.0730579 C19.6145701,36.3114424 19.5265176,36.4872105 19.3876314,36.6171718 C19.2779422,36.7198123 19.1194997,36.7952436 18.9333993,36.818824 C18.7754009,36.8388436 18.5985513,36.8207834 18.4547541,36.7758862 C18.1812141,36.6904799 18.0364437,36.5129775 17.981897,36.3680631 C17.4555365,34.9696797 17.6822981,33.4091698 18.2722155,32.0013158 C19.0683447,30.1013317 20.5141371,28.5098583 21.4613766,27.9967473 C23.0823012,27.1183984 24.9945369,27.0779728 26.6177817,27.9727899 C27.9995685,28.7343816 28.8635686,29.9639426 29.722878,31.217281 C29.9055475,31.4837122 30.086849,31.7481898 30.274228,32.0080153 C30.6497545,32.5286491 30.687133,33.045007 30.541706,33.4877875 C30.3805992,33.9783082 29.9698106,34.3922751 29.4561279,34.6089179 C28.9813467,34.8091542 28.4303017,34.8373409 27.9426912,34.6316022 C27.5307766,34.457802 27.1527509,34.1189991 26.9135543,33.5441366 C26.5106997,32.5759979 25.8395054,31.5078633 24.9516857,30.9398728 Z M55.6548673,33.0937975 C55.2408418,33.3096064 54.9169323,33.374674 54.4576555,33.23702 C54.2036764,33.160705 53.9526593,33.0144432 53.7561345,32.8178457 C53.5613677,32.6230067 53.4208436,32.3807091 53.3662218,32.1119136 C53.2318807,31.448533 52.8690542,30.8275659 52.3520111,30.4227561 C51.9100851,30.0767579 51.3522745,29.8933707 50.7335573,29.9968307 C50.065914,30.1083241 49.4298217,30.5366723 48.9917231,31.0416852 C48.8452977,31.2106718 48.7305207,31.4025926 48.6151305,31.5932179 C48.3992748,31.9497084 48.1894714,32.2810751 47.8917746,32.542877 C47.7789276,32.6424848 47.6088842,32.7114736 47.4441902,32.7114736 C47.3772542,32.7114736 47.3093237,32.7005777 47.2445923,32.6803959 C46.5800727,32.0131854 46.4522802,31.5070378 46.4737043,31.0050066 C46.4961706,30.4785528 46.7036494,29.9455235 47.0389365,29.4481914 C47.8254375,28.2815727 49.3187394,27.325054 50.3264313,27.1083981 C51.7064585,26.8117243 53.0769903,27.1678614 54.1758196,27.9389242 C55.3064504,28.7323026 56.144245,29.9640973 56.4054446,31.3522692 C56.4682804,31.6865987 56.4415788,32.0474695 56.3143003,32.3603601 C56.1899299,32.6661015 55.9731942,32.9279631 55.6548673,33.0937975 Z M27.9952819,18.5017791 C27.167099,19.3089751 26.186872,19.4340071 25.1952116,19.5452148 C24.6442204,19.6075863 24.2043647,19.6578665 23.7715275,19.7555681 C22.5818305,20.0242187 21.4058552,20.4288355 20.3329704,21.0115615 C19.211442,21.620733 17.989231,22.3553922 17.1099416,23.2965473 C16.9008565,23.5205084 16.7037606,23.7555081 16.5063894,23.9910224 C16.3264143,24.2057819 16.1530423,24.4125321 15.9703251,24.6118811 C15.7604872,24.840859 15.5612233,25.0808436 15.3630186,25.3202011 C15.2404584,25.5221703 15.2162481,25.5718445 15.1915671,25.6235555 C15.1544267,25.7012586 15.1112243,25.7882175 15.0618811,25.881507 C14.994304,26.00927 14.9151495,26.1491281 14.8322496,26.2759302 C14.694323,26.5077023 14.6203141,26.5715439 14.5563625,26.6000995 C14.450245,26.6473779 14.3496076,26.670668 14.2519729,26.6580559 C14.1604269,26.6462302 14.0741805,26.6022454 13.9890111,26.5302411 C13.5638158,26.1708626 13.4384151,25.5810771 13.451268,24.9550183 C13.4707721,24.0049804 13.8210525,22.9531154 14.143958,22.3065079 C14.8947776,20.8040679 15.9360629,19.2421847 17.1881468,18.1208401 C18.6168876,16.8408456 20.1799776,15.8718241 21.9753471,15.2041023 C23.0910641,14.7890045 24.3828684,14.4079855 25.5983993,14.4561135 C26.4733376,14.4907561 27.3085909,14.750935 27.9983781,15.4006693 C28.4219478,15.7995228 28.6252726,16.366851 28.6252726,16.9337773 C28.6252726,17.5119965 28.4140968,18.09363 27.9952819,18.5017791 Z M57.3392053,25.8934889 C57.2865376,25.9798413 57.21364,26.0393497 57.1325267,26.0750899 C57.0474954,26.1125565 56.9525682,26.123348 56.8614719,26.1079928 C56.7707788,26.0927056 56.6845695,26.0515787 56.6161851,25.988726 C56.5506398,25.9284828 56.5007284,25.8485866 56.4784111,25.750707 C55.9285626,23.3348408 54.8608939,21.5374004 52.5820872,20.3783039 C51.4611084,19.8081048 50.1720888,19.4458221 48.9518234,19.1569768 C48.5972206,19.0730312 48.2225293,19.0186403 47.845192,18.9635246 C46.6625898,18.7907878 45.4714547,18.5929632 44.7004985,17.6366939 C44.2359589,17.0606717 44.040998,16.3240014 44.1512282,15.6502849 C44.2550159,15.0159439 44.6255559,14.4342982 45.2991365,14.0857365 C46.9760711,13.2183761 49.0599897,14.0694836 50.7534234,14.7945104 C50.8790413,14.8482924 51.0023525,14.9010881 51.1230064,14.9520299 C52.7790526,15.6513169 54.2894544,16.5743601 55.5310323,17.8944163 C56.5161659,18.9416635 57.4289058,20.4898275 57.7965097,22.0824599 C58.1023429,23.4074726 58.0304315,24.7601286 57.3392053,25.8934889 Z" id="ðŸ–-Ink"></path>
                            </g>
                            <g id="facial-hair/*-None" transform="translate(30.816454, 84.635196)"></g>
                            <g id="mask/*no-mask" transform="translate(5.511886, 70.362397)"></g>
                            <g id="accessories/Glasses-5" transform="translate(11.775393, 60.346397)" fill="#000000">
                                <path d="M92.0954096,19.0546679 C91.385921,21.0248439 90.3061336,23.0759158 88.9857522,24.7340277 C83.6435137,29.3502195 78.4525559,26.7943156 75.8168107,20.5379319 C74.8152978,16.1165561 77.4743748,11.3539323 80.2920079,8.10145244 C84.3612813,3.93966062 91.0023255,6.12385253 92.8733885,11.0713083 C92.9870371,11.7123323 93.0557782,12.3518202 93.0886435,12.9892602 C93.0497571,15.0605561 92.8051491,16.830796 92.0954096,18.798668 M40.7452935,15.0812921 C47.782979,6.53934051 60.9491608,6.08263653 60.6132325,19.2295159 C59.1014297,35.8705392 33.6443863,31.7860594 40.7452935,15.0812921 Z M94.3089238,7.95553244 C94.0623088,7.52929246 93.7885987,7.11687648 93.4898006,6.7223805 C93.3794134,6.6553085 93.3159408,6.06036453 92.910017,6.01633253 C87.4842354,-0.0915711959 77.952552,3.37390065 74.5084715,9.46004438 C73.8795154,10.2295803 73.3664658,11.1304443 72.9881388,12.0822523 C69.5947361,11.4471163 65.6386095,11.5705083 62.4825393,12.8784122 C59.3530623,4.5399806 49.8785795,3.79553263 43.6349292,7.35828447 C39.7515579,9.30721238 37.2334755,13.3886202 33.4567281,15.6306681 C24.5783362,16.2827001 15.0496633,14.2528762 6.33158372,16.5253881 C-0.544033256,17.984076 5.20362729,21.5365878 6.35667172,19.1657719 C14.5762528,16.6876921 24.3141596,18.781772 32.8483441,18.223436 C33.7357067,19.7550839 35.4374256,21.0084599 37.1333743,20.9549559 C38.9650491,37.5235311 62.644106,34.7761392 63.4609712,20.0476919 C64.387471,18.552908 65.5397628,17.12238 67.1890479,16.1910521 C67.8205128,16.0576761 68.4304021,15.8843641 68.9878574,15.6160761 C69.9406996,15.4788601 71.4088493,15.8910201 72.285424,16.7004921 C75.2882066,35.0853872 92.5876362,32.9442033 95.6792303,16.83822 C95.7406959,16.7742201 95.9125487,16.5340921 96.0445115,16.1488121 C97.1027233,14.7211001 99.6933101,14.1904122 99.2793581,11.7801723 C98.9108154,9.36942038 95.9273506,9.39809238 94.3089238,7.95553244 Z" id="ðŸ–-Ink"></path>
                            </g>
                        </g>
                    </g>
                </g>
            </g>
        </g>
    </g>
</svg>